<?xml version="1.0" encoding="utf-8"?>
<!-- Generator: Adobe Illustrator 19.0.0, SVG Export Plug-In . SVG Version: 6.00 Build 0)  -->
<svg version="1.1" id="Layer_1" xmlns="http://www.w3.org/2000/svg" xmlns:xlink="http://www.w3.org/1999/xlink" x="0px" y="0px"
	 viewBox="411 311 374 170" style="enable-background:new 411 311 374 170;" xml:space="preserve">
<path d="M486,341.8c-4.2,4.9-10.8,8.8-17.5,8.3c-0.8-6.7,2.4-13.8,6.2-18.2c4.2-5.1,11.5-8.7,17.4-9
	C492.8,329.9,490.1,336.7,486,341.8 M492.1,351.4c-9.7-0.5-17.9,5.5-22.5,5.5c-4.7,0-11.7-5.2-19.3-5.1c-10,0.2-19.2,5.8-24.3,14.7
	c-10.4,17.9-2.7,44.5,7.4,59.1c4.9,7.3,10.8,15.2,18.6,14.9c7.4-0.3,10.3-4.8,19.2-4.8c9,0,11.5,4.8,19.3,4.7
	c8.1-0.2,13.2-7.3,18.1-14.5c5.6-8.2,7.9-16.2,8.1-16.6c-0.2-0.2-15.6-6.1-15.7-23.8c-0.2-14.9,12.2-22,12.7-22.4
	C506.7,352.7,495.8,351.6,492.1,351.4 M547.9,331.2v108.4h16.8v-37.1H588c21.3,0,36.2-14.6,36.2-35.8s-14.7-35.6-35.7-35.6H547.9z
	 M564.7,345.4h19.4c14.6,0,22.9,7.8,22.9,21.5s-8.3,21.6-23,21.6h-19.3V345.4z M655,440.4c10.6,0,20.4-5.4,24.8-13.8h0.3v13h15.6
	v-54c0-15.7-12.5-25.7-31.8-25.7c-17.9,0-31.1,10.2-31.6,24.3h15.2c1.2-6.7,7.4-11.1,15.9-11.1c10.3,0,16.1,4.8,16.1,13.6v6l-21,1.2
	c-19.6,1.2-30.1,9.2-30.1,23.1C628.4,431.1,639.4,440.4,655,440.4z M659.5,427.6c-9,0-14.7-4.3-14.7-10.9c0-6.8,5.5-10.8,16-11.4
	l18.7-1.2v6.1C679.5,420.4,670.9,427.6,659.5,427.6z M716.6,469.1c16.4,0,24.1-6.2,30.9-25.3L777,361h-17.1l-19.8,64h-0.3
	l-19.8-64.1h-17.6l28.5,78.9l-1.5,4.8c-2.6,8.1-6.7,11.3-14.2,11.3c-1.3,0-3.9-0.2-4.9-0.3v13C711.1,469,715.3,469.1,716.6,469.1
	L716.6,469.1z"/>
</svg>
