<?xml version="1.0" encoding="utf-8"?>
<svg id="master-artboard" viewBox="0 0 1198.7166748046875 245.2542266845703" xmlns="http://www.w3.org/2000/svg" width="160.7166748046875px" height="100.2542266845703px" version="1.1" style="shape-rendering:geometricPrecision; text-rendering:geometricPrecision; image-rendering:optimizeQuality; fill-rule:evenodd; clip-rule:evenodd"><rect id="ee-background" x="0" y="0" width="1198.7166748046875" height="245.2542266845703" style="fill: white; fill-opacity: 0; pointer-events: none;"/>
 
 <metadata id="CorelCorpID_0Corel-Layer"/>
<g transform="matrix(4.666666507720947, 0, 0, 4.666666507720947, -101.25908692277602, -343.4221585754277)"><title>Capitec pay / Stacked / Ratio 3:2</title><g id="Capitec-pay-/-Stacked-/-Ratio-3:2" stroke="none" stroke-width="1" fill="none" fill-rule="evenodd">
        <g id="Group-2-Copy" transform="translate(-37.000000, 28.000000)" fill-rule="nonzero">
            <g id="Lozenge" transform="translate(61.179572, 47.995969)">
                <path d="M65.8187809,0.0120927108 L32.9697968,0.0120927108 L32.9697968,14.1605643 C32.983116,19.0932953 36.9818558,23.0850029 41.9099396,23.0849849 L59.0895113,23.0849849 C65.3165686,23.255449 70.2735684,28.3619691 70.2646897,34.5972455 L70.2646897,47.9959691 C82.1889072,46.0248572 91.3102691,35.625126 91.3102691,24.0161236 C91.3102691,11.0164595 79.8330588,0.0120927108 65.8187809,0.0120927108 Z" id="Path" fill="#E61414"/>
                <path d="M52.2273476,24.7779644 L35.1081823,24.7779644 C32.1539448,24.790821 29.3156057,23.6284594 27.2175814,21.5465917 C25.1195572,19.464724 23.9337114,16.6338903 23.9209226,13.6768559 L23.9209226,0 C10.6315211,0.761840779 0,11.4517971 0,23.9677528 C0,36.9795096 11.465129,47.9838764 25.4914882,47.9838764 L61.1674904,47.9838764 L61.1674904,33.7386631 C61.1542493,28.8000214 57.1612962,24.7978874 52.2273476,24.7779644" id="Path" fill="#00486D"/>
            </g>
        </g>
        <g id="Capitec-Pay" transform="translate(137.392300, 86.903300)" fill="#00466E" fill-rule="nonzero">
            <path d="M7.0329,26.4537 C10.8528,26.4537 13.6017,24.1689 13.6017,20.349 L13.6017,17.7072 L9.5319,17.7072 L9.5319,20.0991 C9.5319,21.5271 8.6037,22.491 7.1043,22.491 C5.4978,22.491 4.5696,21.5628 4.5696,19.8135 L4.5696,6.7473 C4.5696,5.2122 5.3193,4.1412 7.0686,4.1412 C8.6037,4.1412 9.5319,5.1051 9.5319,6.6045 L9.5319,8.9964 L13.6017,8.9964 L13.6017,6.1761 C13.6017,2.4633 10.8171,0.2499 7.0686,0.2499 C3.0702,0.2499 0,2.5704 0,6.6402 L0,20.0634 C0,24.3474 2.9274,26.4537 7.0329,26.4537 Z" id="Path"/>
            <path d="M20.0277,26.4537 C21.0987,26.4537 22.8837,25.8825 23.5977,24.1689 L23.7048,24.1689 C23.7762,25.2042 23.8833,25.9539 23.8833,26.0967 L27.7389,26.0967 C27.7389,25.6326 27.5604,23.2407 27.5604,21.7056 L27.5604,11.7453 C27.5604,8.568 25.3827,6.6759 21.9912,6.6759 C18.564,6.6759 16.2435,8.6037 16.2435,11.5311 L16.2435,13.209 L20.0634,13.209 L20.0634,11.6025 C20.0634,10.71 20.5275,10.0317 21.7056,10.0317 C22.848,10.0317 23.3835,10.6743 23.3835,11.6025 L23.3835,14.4942 L22.2768,14.4942 C18.8139,14.5656 15.8508,16.7076 15.8508,20.706 C15.8508,24.7401 17.7429,26.4537 20.0277,26.4537 Z M21.5985,23.1693 C20.6703,23.1693 20.0634,22.3125 20.0634,20.2062 C20.0634,18.0285 21.0987,17.0646 22.3839,17.0646 L23.3835,17.0646 L23.3835,20.9916 C23.3835,22.2054 22.5267,23.1693 21.5985,23.1693 Z" id="Shape"/>
            <path d="M30.7377,31.8444 L34.9503,31.8444 L34.9503,24.8115 L34.986,24.8115 C35.7357,25.9182 37.0209,26.4537 38.199,26.4537 C41.055,26.4537 42.6615,24.4545 42.6615,21.9555 L42.6615,11.2455 C42.6615,8.7465 41.4834,6.7116 38.5917,6.7116 C37.3065,6.7116 35.7,7.497 34.9146,8.8893 L34.8432,8.8893 L34.8432,7.1043 L30.7377,7.1043 L30.7377,31.8444 Z M36.8424,23.0979 C35.8071,23.0979 34.9503,22.2768 34.9503,20.8845 L34.9503,12.5664 C34.9503,10.9599 35.7714,10.1031 36.8424,10.1031 C37.9134,10.1031 38.4846,10.8171 38.4846,11.9238 L38.4846,21.2415 C38.4846,22.491 37.8063,23.0979 36.8424,23.0979 Z" id="Shape"/>
            <path d="M45.6603,26.0967 L49.8729,26.0967 L49.8729,7.1043 L45.6603,7.1043 L45.6603,26.0967 Z M45.6603,4.6053 L49.8729,4.6053 L49.8729,0 L45.6603,0 L45.6603,4.6053 Z" id="Shape"/>
            <path d="M58.1196,26.3466 C59.0121,26.3466 60.0831,26.2038 60.9399,25.8825 L60.9399,22.5267 C60.5472,22.6338 59.9403,22.7052 59.4048,22.7052 C58.6194,22.7052 58.3338,22.3125 58.3338,21.5271 L58.3338,10.5315 L61.047,10.5315 L61.047,7.2471 L58.3338,7.2471 L58.3338,2.9274 L54.1569,2.9274 L54.1569,7.2471 L52.4076,7.2471 L52.4076,10.5315 L54.1569,10.5315 L54.1569,22.7766 C54.1569,25.3113 55.9419,26.3466 58.1196,26.3466 Z" id="Path"/>
            <path d="M69.258,26.4894 C71.2572,26.4894 72.9351,26.061 74.3988,25.347 L73.6134,22.3125 C72.7209,22.6338 71.3643,23.0622 70.0791,23.0622 C68.3655,23.0622 67.4016,22.134 67.4016,20.349 L67.4016,18.0642 L74.613,18.0642 L74.613,12.2094 C74.613,8.8893 72.6138,6.6759 69.1509,6.6759 C65.8308,6.6759 63.2247,8.8179 63.2247,12.6021 L63.2247,20.8488 C63.2247,24.633 65.7237,26.4894 69.258,26.4894 Z M67.4016,15.0654 L67.4016,12.0309 C67.4016,10.9956 67.9371,10.0317 69.1509,10.0317 C70.4004,10.0317 70.8645,10.9599 70.8645,11.9952 L70.8645,15.0654 L67.4016,15.0654 Z" id="Shape"/>
            <path d="M83.0025,26.4537 C86.394,26.4537 88.5717,24.7044 88.5717,21.5628 L88.5717,19.8492 L84.8232,19.8492 L84.8232,21.3486 C84.8232,22.1697 84.4305,23.0979 83.1453,23.0979 C81.8958,23.0979 81.396,22.1697 81.396,21.0273 L81.396,12.1023 C81.396,10.9956 81.9315,10.1031 83.1453,10.1031 C84.3234,10.1031 84.8232,10.8885 84.8232,11.8167 L84.8232,13.3161 L88.5717,13.3161 L88.5717,11.5311 C88.5717,8.7465 86.4654,6.6759 83.0739,6.6759 C79.8609,6.6759 77.1834,8.6751 77.1834,12.3879 L77.1834,20.9202 C77.1834,24.5616 79.6467,26.4537 83.0025,26.4537 Z" id="Path"/>
            <path d="M96.6042,26.0967 L101.1024,26.0967 L101.1024,16.5648 L103.6014,16.5648 C107.9925,16.5648 109.9203,13.4232 109.9203,8.3181 C109.9203,3.4629 107.9568,0.6426 103.7799,0.6426 L96.6042,0.6426 L96.6042,26.0967 Z M101.1024,12.852 L101.1024,4.3911 L103.0302,4.3911 C104.8152,4.3911 105.5292,5.8191 105.5292,8.4252 C105.5292,11.3883 104.6724,12.852 102.9588,12.852 L101.1024,12.852 Z" id="Shape"/>
            <path d="M116.3463,26.4537 C117.4173,26.4537 119.2023,25.8825 119.9163,24.1689 L120.0234,24.1689 C120.0948,25.2042 120.2019,25.9539 120.2019,26.0967 L124.0575,26.0967 C124.0575,25.6326 123.879,23.2407 123.879,21.7056 L123.879,11.7453 C123.879,8.568 121.7013,6.6759 118.3098,6.6759 C114.8826,6.6759 112.5621,8.6037 112.5621,11.5311 L112.5621,13.209 L116.382,13.209 L116.382,11.6025 C116.382,10.71 116.8461,10.0317 118.0242,10.0317 C119.1666,10.0317 119.7021,10.6743 119.7021,11.6025 L119.7021,14.4942 L118.5954,14.4942 C115.1325,14.5656 112.1694,16.7076 112.1694,20.706 C112.1694,24.7401 114.0615,26.4537 116.3463,26.4537 Z M117.9171,23.1693 C116.9889,23.1693 116.382,22.3125 116.382,20.2062 C116.382,18.0285 117.4173,17.0646 118.7025,17.0646 L119.7021,17.0646 L119.7021,20.9916 C119.7021,22.2054 118.8453,23.1693 117.9171,23.1693 Z" id="Shape"/>
            <path d="M129.0912,32.2014 C131.5902,32.2014 133.1253,30.6306 133.9464,27.3105 L138.516,7.1043 L134.6961,7.1043 L132.6255,19.0638 L132.5184,19.0638 L130.0908,7.1043 L125.7354,7.1043 L130.4835,25.9182 L130.0908,27.6318 C129.8409,28.4886 129.3411,28.8099 128.5914,28.8099 C128.163,28.8099 127.6632,28.7028 127.092,28.5957 L126.6636,31.9158 C127.3776,32.0943 128.1273,32.2014 129.0912,32.2014 Z" id="Path"/>
        </g>
    </g></g></svg>