
<svg width="90" height="110" viewBox="0 0 90 110" fill="none" xmlns="http://www.w3.org/2000/svg">
<rect width="90" height="110" fill="#1AD881"/>
<path fill-rule="evenodd" clip-rule="evenodd" d="M21.0075 20C17.1585 20 14.7528 24.1667 16.6773 27.5L29.186 49.1657C31.1105 52.499 35.9218 52.499 37.8463 49.1657L50.3549 27.5C52.2794 24.1667 49.8738 20 46.0248 20H21.0075ZM29.6519 22.4429C27.3425 22.4429 25.8992 24.9429 27.0539 26.9429L34.9119 40.5534C36.0666 42.5534 38.9533 42.5534 40.108 40.5534L47.9661 26.9429C49.1208 24.9429 47.6774 22.4429 45.368 22.4429L29.6519 22.4429Z" fill="black"/>
<path d="M16.3978 64.8319V63.7275H22.2003V64.8319H19.9524V71.0003H18.6456V64.8319H16.3978Z" fill="black"/>
<path d="M23.3189 71.0003V63.7275H24.6364V66.8064H28.0064V63.7275H29.3274V71.0003H28.0064V67.9108H24.6364V71.0003H23.3189Z" fill="black"/>
<path d="M30.7603 71.0003V63.7275H35.4904V64.8319H32.0778V66.8064H35.2454V67.9108H32.0778V69.8959H35.5188V71.0003H30.7603Z" fill="black"/>
<path d="M17.6904 74.7275L19.5831 80.452H19.6577L21.5469 74.7275H22.9958L20.4318 82.0003H18.8054L16.2451 74.7275H17.6904Z" fill="black"/>
<path d="M23.9537 82.0003V74.7275H28.6838V75.8319H25.2712V77.8064H28.4388V78.9108H25.2712V80.8959H28.7122V82.0003H23.9537Z" fill="black"/>
<path d="M36.0045 74.7275V82.0003H34.8326L31.4057 77.0464H31.3454V82.0003H30.0279V74.7275H31.2069L34.6302 79.6849H34.6941V74.7275H36.0045Z" fill="black"/>
<path d="M37.1204 75.8319V74.7275H42.923V75.8319H40.6751V82.0003H39.3683V75.8319H37.1204Z" fill="black"/>
<path d="M48.6261 74.7275H49.9436V79.479C49.9436 79.9998 49.8205 80.4579 49.5742 80.8532C49.3304 81.2486 48.9871 81.5576 48.5444 81.7801C48.1017 82.0003 47.5844 82.1104 46.9926 82.1104C46.3983 82.1104 45.8799 82.0003 45.4372 81.7801C44.9945 81.5576 44.6512 81.2486 44.4073 80.8532C44.1635 80.4579 44.0416 79.9998 44.0416 79.479V74.7275H45.359V79.3689C45.359 79.6719 45.4253 79.9418 45.5579 80.1785C45.6929 80.4153 45.8822 80.6011 46.1261 80.7361C46.3699 80.8686 46.6588 80.9349 46.9926 80.9349C47.3264 80.9349 47.6152 80.8686 47.859 80.7361C48.1053 80.6011 48.2947 80.4153 48.4272 80.1785C48.5598 79.9418 48.6261 79.6719 48.6261 79.3689V74.7275Z" fill="black"/>
<path d="M51.3756 82.0003V74.7275H54.1028C54.6615 74.7275 55.1303 74.8246 55.5091 75.0187C55.8902 75.2129 56.1779 75.4851 56.372 75.8355C56.5685 76.1835 56.6668 76.5895 56.6668 77.0535C56.6668 77.5199 56.5673 77.9247 56.3685 78.268C56.172 78.6089 55.882 78.8729 55.4984 79.0599C55.1149 79.2446 54.6438 79.3369 54.0851 79.3369H52.1426V78.2432H53.9075C54.2342 78.2432 54.5017 78.1982 54.7101 78.1082C54.9184 78.0159 55.0723 77.8821 55.1717 77.7069C55.2735 77.5294 55.3244 77.3116 55.3244 77.0535C55.3244 76.7955 55.2735 76.5753 55.1717 76.393C55.0699 76.2084 54.9149 76.0687 54.7065 75.974C54.4982 75.8769 54.2295 75.8284 53.9004 75.8284H52.693V82.0003H51.3756ZM55.1327 78.7048L56.9331 82.0003H55.4629L53.6945 78.7048H55.1327Z" fill="black"/>
<path d="M57.8795 82.0003V74.7275H62.6096V75.8319H59.1969V77.8064H62.3646V78.9108H59.1969V80.8959H62.638V82.0003H57.8795Z" fill="black"/>
<path d="M20.6698 87.7268C20.6366 87.4167 20.497 87.1752 20.2507 87.0024C20.0069 86.8296 19.6897 86.7432 19.299 86.7432C19.0244 86.7432 18.7889 86.7846 18.5924 86.8675C18.3959 86.9503 18.2455 87.0628 18.1414 87.2048C18.0372 87.3469 17.9839 87.509 17.9816 87.6913C17.9816 87.8428 18.0159 87.9742 18.0845 88.0855C18.1556 88.1968 18.2514 88.2915 18.3722 88.3696C18.4929 88.4453 18.6267 88.5093 18.7735 88.5613C18.9202 88.6134 19.0682 88.6572 19.2174 88.6927L19.8992 88.8632C20.1738 88.9271 20.4378 89.0135 20.6911 89.1224C20.9468 89.2313 21.1752 89.3686 21.3764 89.5344C21.58 89.7001 21.741 89.9001 21.8594 90.1345C21.9778 90.3689 22.037 90.6435 22.037 90.9584C22.037 91.3845 21.9281 91.7597 21.7103 92.0841C21.4925 92.406 21.1776 92.6582 20.7657 92.8405C20.3561 93.0204 19.8601 93.1104 19.2777 93.1104C18.7119 93.1104 18.2207 93.0228 17.804 92.8476C17.3897 92.6724 17.0654 92.4167 16.831 92.0805C16.599 91.7443 16.4735 91.3348 16.4546 90.8518H17.7507C17.7697 91.1051 17.8478 91.3158 17.9851 91.4839C18.1224 91.652 18.3012 91.7775 18.5213 91.8604C18.7439 91.9432 18.9925 91.9846 19.2671 91.9846C19.5535 91.9846 19.8045 91.942 20.0199 91.8568C20.2377 91.7692 20.4082 91.6485 20.5313 91.4946C20.6544 91.3383 20.7171 91.156 20.7195 90.9477C20.7171 90.7583 20.6615 90.6021 20.5526 90.479C20.4437 90.3535 20.291 90.2493 20.0945 90.1665C19.9004 90.0812 19.6731 90.0055 19.4127 89.9392L18.5853 89.7261C17.9863 89.5722 17.5128 89.339 17.1648 89.0265C16.8192 88.7117 16.6463 88.2938 16.6463 87.773C16.6463 87.3445 16.7623 86.9693 16.9943 86.6473C17.2287 86.3253 17.5471 86.0756 17.9496 85.898C18.3521 85.7181 18.8078 85.6281 19.3168 85.6281C19.8329 85.6281 20.2851 85.7181 20.6733 85.898C21.0639 86.0756 21.3705 86.3229 21.5931 86.6402C21.8156 86.955 21.9304 87.3173 21.9375 87.7268H20.6698Z" fill="black"/>
<path d="M22.8919 86.8319V85.7275H28.6945V86.8319H26.4466V93.0003H25.1398V86.8319H22.8919Z" fill="black"/>
<path d="M34.3976 85.7275H35.715V90.479C35.715 90.9998 35.5919 91.4579 35.3457 91.8532C35.1019 92.2486 34.7586 92.5576 34.3159 92.7801C33.8732 93.0003 33.3559 93.1104 32.7641 93.1104C32.1698 93.1104 31.6514 93.0003 31.2087 92.7801C30.7659 92.5576 30.4227 92.2486 30.1788 91.8532C29.935 91.4579 29.8131 90.9998 29.8131 90.479V85.7275H31.1305V90.3689C31.1305 90.6719 31.1968 90.9418 31.3294 91.1785C31.4643 91.4153 31.6537 91.6011 31.8976 91.7361C32.1414 91.8686 32.4302 91.9349 32.7641 91.9349C33.0979 91.9349 33.3867 91.8686 33.6305 91.7361C33.8767 91.6011 34.0661 91.4153 34.1987 91.1785C34.3313 90.9418 34.3976 90.6719 34.3976 90.3689V85.7275Z" fill="black"/>
<path d="M39.6115 93.0003H37.147V85.7275H39.6612C40.3833 85.7275 41.0036 85.8731 41.522 86.1643C42.0429 86.4532 42.443 86.8686 42.7223 87.4108C43.0017 87.9529 43.1414 88.6016 43.1414 89.3568C43.1414 90.1144 43.0005 90.7654 42.7188 91.3099C42.4394 91.8544 42.0358 92.2723 41.5078 92.5635C40.9823 92.8547 40.3502 93.0003 39.6115 93.0003ZM38.4645 91.8604H39.5476C40.0542 91.8604 40.4768 91.768 40.8154 91.5834C41.1539 91.3963 41.4084 91.1182 41.5789 90.7488C41.7493 90.3772 41.8345 89.9131 41.8345 89.3568C41.8345 88.8005 41.7493 88.3388 41.5789 87.9719C41.4084 87.6025 41.1563 87.3267 40.8225 87.1444C40.491 86.9598 40.0791 86.8675 39.5867 86.8675H38.4645V91.8604Z" fill="black"/>
<path d="M45.7106 85.7275V93.0003H44.3931V85.7275H45.7106Z" fill="black"/>
<path d="M53.6359 89.3639C53.6359 90.1475 53.4891 90.8187 53.1955 91.3774C52.9043 91.9337 52.5066 92.3599 52.0023 92.6558C51.5004 92.9517 50.9311 93.0997 50.2942 93.0997C49.6574 93.0997 49.0869 92.9517 48.5826 92.6558C48.0807 92.3575 47.683 91.9302 47.3894 91.3738C47.0982 90.8151 46.9526 90.1452 46.9526 89.3639C46.9526 88.5803 47.0982 87.9103 47.3894 87.354C47.683 86.7952 48.0807 86.3679 48.5826 86.072C49.0869 85.7761 49.6574 85.6281 50.2942 85.6281C50.9311 85.6281 51.5004 85.7761 52.0023 86.072C52.5066 86.3679 52.9043 86.7952 53.1955 87.354C53.4891 87.9103 53.6359 88.5803 53.6359 89.3639ZM52.3113 89.3639C52.3113 88.8123 52.2249 88.3471 52.0521 87.9683C51.8816 87.5872 51.6449 87.2995 51.3418 87.1054C51.0388 86.9089 50.6896 86.8106 50.2942 86.8106C49.8989 86.8106 49.5497 86.9089 49.2467 87.1054C48.9436 87.2995 48.7057 87.5872 48.5329 87.9683C48.3624 88.3471 48.2772 88.8123 48.2772 89.3639C48.2772 89.9155 48.3624 90.3819 48.5329 90.7631C48.7057 91.1418 48.9436 91.4295 49.2467 91.626C49.5497 91.8201 49.8989 91.9172 50.2942 91.9172C50.6896 91.9172 51.0388 91.8201 51.3418 91.626C51.6449 91.4295 51.8816 91.1418 52.0521 90.7631C52.2249 90.3819 52.3113 89.9155 52.3113 89.3639Z" fill="black"/>
</svg>
