<svg width="175" height="79" viewBox="0 0 375 79" fill="none" xmlns="http://www.w3.org/2000/svg">
<path d="M58.1848 23.085C51.4744 14.9307 38.8606 11.9578 29.5596 21.3012C23.7836 27.0772 16.0964 34.7644 16.0964 34.7644C14.0154 36.8454 14.3127 39.3936 15.7142 41.0925C18.0501 38.7566 27.521 29.2857 32.5325 24.2742C40.6019 16.2048 51.1346 17.309 58.1848 23.085Z" fill="white"/>
<path d="M54.7019 33.7026C56.5705 37.8222 56.2308 42.9612 51.8564 47.3781L33.4242 65.8102L31.2157 63.602L29.0922 74.432L53.0456 50.4784C58.6094 44.8723 58.057 38.1195 54.7019 33.7026Z" fill="#F5F5F6"/>
<path d="M39.9648 72.3511L36.015 68.4011L38.3084 69.8876L53.9377 54.2585C65.6168 43.1314 64.4705 30.7724 58.1419 23.0853C51.092 17.3093 40.5594 16.2051 32.49 24.2744C27.436 29.3285 18.0075 38.7569 15.6716 41.0928C17.2855 43.1314 20.4283 44.0232 22.8916 41.56L34.571 30.008C41.9608 22.6181 51.5167 26.6953 54.7019 33.6604C58.057 38.0774 58.6094 44.8726 53.0457 50.4363L29.0923 74.3895V74.432L39.9648 72.3511Z" fill="#EEEDEE"/>
<path d="M4.67194 55.7025C11.3823 63.8997 23.996 66.8297 33.297 57.4862C39.073 51.7105 46.7601 44.0233 46.7601 44.0233C48.8412 41.9423 48.5439 39.6064 47.1424 37.9076C44.8065 40.2435 35.3356 49.502 30.3241 54.5138C22.2547 62.6255 11.722 61.4787 4.67194 55.7025Z" fill="url(#paint0_linear_528_11)"/>
<path d="M8.01433 45.2972C6.14563 41.1776 6.48538 36.0386 10.8598 31.6217L29.3345 13.1895L31.543 15.398L33.6665 4.56802L9.71315 28.5214C4.14953 34.085 4.70164 40.8803 8.01433 45.2972Z" fill="white"/>
<path d="M22.8772 6.64906L26.8269 10.5988L24.5335 9.11235L8.90437 24.7415C-2.775 35.8687 -1.6283 48.2277 4.6998 55.9148C11.7499 61.6909 22.2826 62.7948 30.352 54.7255C35.406 49.6717 44.8344 40.2432 47.1703 37.9074C45.5564 35.8687 42.4136 34.9769 39.9503 37.4402L28.2709 48.9921C20.881 56.3818 11.3252 52.3048 8.1399 45.3397C4.78474 40.9228 4.23262 34.1275 9.79627 28.5638L33.7496 4.6105V4.56802L22.8772 6.64906Z" fill="white"/>
<path d="M93.8939 45.5459C94.7323 52.1597 98.7145 55.4666 105.841 55.4666C112.827 55.4666 116.32 53.0446 116.32 48.2008C116.32 46.3843 115.668 45.0103 114.364 44.0788C113.06 43.0541 109.916 41.9363 104.932 40.7253C98.8774 39.1883 94.7323 37.5582 92.4966 35.8348C89.6553 33.5061 88.2349 30.5019 88.2349 26.8224C88.2349 22.9566 89.7488 19.836 92.7761 17.4606C95.8034 15.0852 99.8092 13.8976 104.793 13.8976C116.25 13.8976 122.166 18.5784 122.538 27.9402L114.993 28.3594C114.341 23.0963 111.011 20.4648 105.002 20.4648C98.7145 20.4648 95.5707 22.421 95.5707 26.3333C95.5707 28.0101 96.316 29.3142 97.8063 30.2457C99.3433 31.2238 102.208 32.1786 106.4 33.1101C112.641 34.554 116.949 36.2074 119.324 38.0705C122.398 40.3993 123.935 43.613 123.935 47.7117C123.935 52.1364 122.305 55.6294 119.045 58.1913C115.784 60.7532 111.337 62.0338 105.701 62.0338C93.6376 62.0338 87.2337 56.7709 86.4883 46.2446L93.8939 45.5459ZM129.812 14.7359H137.008V31.643C139.756 28.4293 143.203 26.8224 147.348 26.8224C151.959 26.8224 155.173 28.3128 156.989 31.2937C158.2 33.2499 158.806 36.3705 158.806 40.6554V61.2653H151.61V41.5637C151.61 35.602 149.467 32.6211 145.182 32.6211C142.108 32.6211 139.849 33.8088 138.405 36.1842C137.474 37.8609 137.008 40.3294 137.008 43.5897V61.2653H129.812V14.7359ZM167.746 14.7359H174.942V22.0716H167.746V14.7359ZM167.746 27.5909H174.942V61.2653H167.746V27.5909ZM190.831 44.8473C190.831 52.4392 193.625 56.2351 199.214 56.2351C204.803 56.2351 207.598 52.2296 207.598 44.2185C207.598 36.3937 204.85 32.4814 199.354 32.4814C193.672 32.4814 190.831 36.6033 190.831 44.8473ZM183.984 27.521H190.621V32.132C193.136 28.5923 196.513 26.8224 200.751 26.8224C204.99 26.8224 208.413 28.406 211.021 31.5731C213.629 34.7403 214.934 38.9321 214.934 44.1486C214.934 49.4583 213.606 53.7431 210.951 57.0036C208.297 60.3103 204.85 61.9639 200.612 61.9639C196.886 61.9639 193.742 60.4737 191.18 57.4927V74.1203H183.984V27.521ZM239.524 34.9965C238.033 34.1115 236.589 33.669 235.192 33.669C231.14 33.669 229.114 38.1171 229.114 47.0131V61.2653H221.918V27.5909H228.555V32.5512C230.604 28.732 233.049 26.8224 235.891 26.8224C237.8 26.8224 239.803 27.4046 241.899 28.569L239.524 34.9965ZM267.197 44.7076C265.939 45.1733 264.914 45.4993 264.123 45.6856C263.191 45.9185 261.538 46.2213 259.162 46.5939C254.598 47.3857 252.316 49.109 252.316 51.7638C252.316 55.0705 254.319 56.7242 258.324 56.7242C261.91 56.7242 264.495 55.3736 266.079 52.672C266.824 51.4145 267.197 49.5049 267.197 46.9432V44.7076ZM245.888 36.6732C248.077 30.106 253.084 26.8224 260.909 26.8224C267.15 26.8224 271.226 28.4758 273.135 31.7827C273.974 33.2266 274.393 35.8348 274.393 39.6075L274.323 51.6939C274.323 55.7461 274.975 58.9367 276.279 61.2653H269.013C268.408 59.961 267.988 58.6572 267.756 57.3529C264.402 60.4269 260.63 61.9639 256.438 61.9639C248.753 61.9639 244.91 58.7271 244.91 52.2529C244.91 47.9679 247.123 44.9404 251.547 43.1705C253.084 42.6116 255.157 42.0993 257.765 41.6335C262.329 40.9349 265.473 40.2595 267.197 39.6075V38.839C267.197 34.6005 265.008 32.4814 260.63 32.4814C256.298 32.4814 253.643 34.2978 252.665 37.9308L245.888 36.6732ZM280.797 55.5365L298.123 35.6951L299.8 33.7389C299.847 33.6458 299.917 33.5759 300.01 33.5293L300.289 33.3197C298.473 33.4595 296.68 33.5293 294.91 33.5293H282.055V27.5909H309.721V32.4814L294.001 50.8556C292.418 52.7186 291.091 54.1859 290.019 55.257C292.022 55.0705 294.001 54.9776 295.958 54.9776H310.769V61.2653H280.797V55.5365ZM320.679 44.4281C320.679 52.2529 323.73 56.1652 329.831 56.1652C332.579 56.1652 334.791 55.0942 336.468 52.9515C338.145 50.8556 338.983 48.061 338.983 44.5678C338.983 36.6499 335.932 32.691 329.831 32.691C323.73 32.691 320.679 36.6033 320.679 44.4281ZM313.273 44.8473C313.273 39.3513 314.787 34.9732 317.814 31.7129C320.795 28.4525 324.801 26.8224 329.831 26.8224C334.768 26.8224 338.773 28.4293 341.847 31.643C344.875 34.8567 346.389 39.0952 346.389 44.3582C346.389 49.6213 344.852 53.8828 341.778 57.1433C338.75 60.3571 334.768 61.9639 329.831 61.9639C324.847 61.9639 320.842 60.4038 317.814 57.2831C314.787 54.1623 313.273 50.0172 313.273 44.8473ZM368.813 34.9965C367.323 34.1115 365.879 33.669 364.481 33.669C360.429 33.669 358.403 38.1171 358.403 47.0131V61.2653H351.207V27.5909H357.844V32.5512C359.893 28.732 362.339 26.8224 365.18 26.8224C367.089 26.8224 369.092 27.4046 371.188 28.569L368.813 34.9965Z" fill="white"/>
<defs>
<linearGradient id="paint0_linear_528_11" x1="26.4647" y1="37.9076" x2="26.4647" y2="63.2887" gradientUnits="userSpaceOnUse">
<stop stop-color="white"/>
<stop offset="1" stop-color="#DBDBDB"/>
</linearGradient>
</defs>
</svg>
